<svg xmlns="http://www.w3.org/2000/svg" width="960" height="576" viewBox="0 0 960 576">
<defs><pattern id="grass" width="70" height="58" patternUnits="userSpaceOnUse"><rect width="70" height="58" fill="#344c3e"/><path d="m9 29 3-6 2 5m34 18 2-5 4 3m6-32 2-4" stroke="#557057" stroke-width="2" fill="none"/><path d="m21 47 9 1m10-35 8-3" stroke="#273e33" stroke-width="3"/></pattern><pattern id="water" width="120" height="60" patternUnits="userSpaceOnUse"><rect width="120" height="60" fill="#285761"/><path d="m10 10 32 0m13 19 44 0m-80 20 30 0" stroke="#4e8890" stroke-width="2" opacity=".6"/></pattern><pattern id="stone" width="48" height="34" patternUnits="userSpaceOnUse"><rect width="48" height="34" fill="#94998a"/><path d="M0 1h48M1 0v34m24-17h24" stroke="#646d62" stroke-width="2"/><path d="m4 5 17-1" stroke="#b6b9a6"/></pattern><g id="pine"><ellipse cy="10" rx="24" ry="12" fill="#152c27" opacity=".5"/><path d="M-4 10v-35h8v35" fill="#69563f"/><path d="m0-65-24 37h10l-18 30h64L14-28h10Z" fill="#233e32" stroke="#142e25" stroke-width="3"/><path d="m0-58-12 25h12m-3 4-17 23h20" fill="#45624a"/></g><g id="rock"><path d="m-18 0 6-17 22-5 15 18-9 15-25 0Z" fill="#6b786c" stroke="#263e34" stroke-width="3"/><path d="m-12-15 22-5-3 16-23 4" fill="#899383"/></g></defs>
<rect width="960" height="576" fill="url(#grass)"/><path d="M0 238q230 60 415 12v89Q220 305 0 366M540 248q170-52 420 7v98q-231-62-420-22" fill="#827f5b" opacity=".5"/><path d="M402 0h157v576H402Z" fill="#223b35"/><path d="M420 0h120v576H420Z" fill="url(#water)"/><path d="M413 0v576M548 0v576" stroke="#718173" stroke-width="8" stroke-dasharray="22 7 35 4"/>
<rect x="399" y="222" width="162" height="132" rx="5" fill="url(#stone)" stroke="#3d4e47" stroke-width="4"/><path d="M395 224h170M395 351h170" stroke="#b4bba6" stroke-width="10"/><path d="M399 233h162M399 342h162" stroke="#555f54" stroke-width="3"/><circle cx="480" cy="288" r="92" fill="none" stroke="#e7c773" stroke-width="2" stroke-dasharray="6 6" opacity=".7"/><path d="m480 268 12 20-12 20-12-20Z" fill="#d9bd71" opacity=".45"/>
<path d="M120 192v198" stroke="#73d5dd" stroke-width="2" stroke-dasharray="5 8" opacity=".55"/><path d="M840 192v198" stroke="#eb9385" stroke-width="2" stroke-dasharray="5 8" opacity=".45"/>
<g><use href="#pine" x="53" y="78"/><use href="#pine" x="107" y="66"/><use href="#pine" x="159" y="92"/><use href="#pine" x="62" y="132"/><use href="#pine" x="327" y="61"/><use href="#pine" x="278" y="104"/><use href="#pine" x="876" y="66"/><use href="#pine" x="930" y="88"/><use href="#pine" x="821" y="107"/><use href="#pine" x="891" y="139"/><use href="#pine" x="651" y="75"/><use href="#pine" x="605" y="106"/><use href="#pine" x="55" y="539"/><use href="#pine" x="110" y="569"/><use href="#pine" x="263" y="508"/><use href="#pine" x="313" y="548"/><use href="#pine" x="348" y="490"/><use href="#pine" x="618" y="543"/><use href="#pine" x="673" y="510"/><use href="#pine" x="877" y="540"/><use href="#pine" x="934" y="516"/></g>
<g><use href="#rock" x="389" y="167"/><use href="#rock" x="566" y="187"/><use href="#rock" x="391" y="397"/><use href="#rock" x="568" y="421"/><use href="#rock" x="206" y="170"/><use href="#rock" x="777" y="415"/></g>
<g fill="#d2ded1" font-family="sans-serif" font-size="11" opacity=".7"><text x="34" y="293">WEST</text><text x="34" y="309">REFUGE</text><text x="872" y="293">EAST</text><text x="872" y="309">BANK</text></g></svg>
